<svg width="500" height="900" viewBox="0 0 471 843" fill="none" xmlns="http://www.w3.org/2000/svg">
<g clip-path="url(#clip0_6_243)">
<rect width="471" height="843" fill="#342A77"/>
<path d="M362 280L362 223L108 248.396L108 280L362 280Z" fill="#DD0808"/>
<path d="M200 279.82L200 239L279.5 231L279.348 279.82L200 279.82Z" fill="#16139C" stroke="#16139C" stroke-width="0.4"/>
<path d="M107.409 134.545L151.443 134.545L179.852 193.636H180.989L209.398 134.545L253.432 134.545L200.023 234.261L200.023 280L160.818 280L160.818 234.261L107.409 134.545ZM235.507 166.364L235.507 134.545L361.928 134.545L361.928 166.364L318.178 166.364L318.178 280H279.257L279.257 166.364L235.507 166.364Z" fill="white"/>
<path d="M99.5455 399V384.818L132.682 354.136C135.5 351.409 137.864 348.955 139.773 346.773C141.712 344.591 143.182 342.455 144.182 340.364C145.182 338.242 145.682 335.955 145.682 333.5C145.682 330.773 145.061 328.424 143.818 326.455C142.576 324.455 140.879 322.924 138.727 321.864C136.576 320.773 134.136 320.227 131.409 320.227C128.561 320.227 126.076 320.803 123.955 321.955C121.833 323.106 120.197 324.758 119.045 326.909C117.894 329.061 117.318 331.621 117.318 334.591H98.6364C98.6364 328.5 100.015 323.212 102.773 318.727C105.53 314.242 109.394 310.773 114.364 308.318C119.333 305.864 125.061 304.636 131.545 304.636C138.212 304.636 144.015 305.818 148.955 308.182C153.924 310.515 157.788 313.758 160.545 317.909C163.303 322.061 164.682 326.818 164.682 332.182C164.682 335.697 163.985 339.167 162.591 342.591C161.227 346.015 158.788 349.818 155.273 354C151.758 358.152 146.803 363.136 140.409 368.955L126.818 382.273V382.909H165.909V399H99.5455ZM234.59 401.045C226.772 401.015 220.045 399.091 214.409 395.273C208.803 391.455 204.484 385.924 201.454 378.682C198.454 371.439 196.969 362.727 197 352.545C197 342.394 198.5 333.742 201.5 326.591C204.53 319.439 208.848 314 214.454 310.273C220.09 306.515 226.803 304.636 234.59 304.636C242.378 304.636 249.075 306.515 254.681 310.273C260.318 314.03 264.651 319.485 267.681 326.636C270.712 333.758 272.212 342.394 272.181 352.545C272.181 362.758 270.666 371.485 267.636 378.727C264.636 385.97 260.333 391.5 254.727 395.318C249.121 399.136 242.409 401.045 234.59 401.045ZM234.59 384.727C239.924 384.727 244.181 382.045 247.363 376.682C250.545 371.318 252.121 363.273 252.09 352.545C252.09 345.485 251.363 339.606 249.909 334.909C248.484 330.212 246.454 326.682 243.818 324.318C241.212 321.955 238.136 320.773 234.59 320.773C229.287 320.773 225.045 323.424 221.863 328.727C218.681 334.03 217.075 341.97 217.045 352.545C217.045 359.697 217.757 365.667 219.181 370.455C220.636 375.212 222.681 378.788 225.318 381.182C227.954 383.545 231.045 384.727 234.59 384.727ZM335.772 426.636C329.499 426.636 324.12 425.773 319.635 424.045C315.181 422.348 311.635 420.03 308.999 417.091C306.363 414.152 304.651 410.848 303.863 407.182L321.772 404.773C322.317 406.167 323.181 407.47 324.363 408.682C325.545 409.894 327.105 410.864 329.045 411.591C331.014 412.348 333.408 412.727 336.226 412.727C340.438 412.727 343.908 411.697 346.635 409.636C349.393 407.606 350.772 404.197 350.772 399.409V386.636H349.954C349.105 388.576 347.832 390.409 346.135 392.136C344.438 393.864 342.257 395.273 339.59 396.364C336.923 397.455 333.742 398 330.045 398C324.802 398 320.029 396.788 315.726 394.364C311.454 391.909 308.045 388.167 305.499 383.136C302.984 378.076 301.726 371.682 301.726 363.955C301.726 356.045 303.014 349.439 305.59 344.136C308.166 338.833 311.59 334.864 315.863 332.227C320.166 329.591 324.878 328.273 329.999 328.273C333.908 328.273 337.181 328.939 339.817 330.273C342.454 331.576 344.575 333.212 346.181 335.182C347.817 337.121 349.075 339.03 349.954 340.909H350.681V329.182H369.908V399.682C369.908 405.621 368.454 410.591 365.545 414.591C362.635 418.591 358.605 421.591 353.454 423.591C348.332 425.621 342.438 426.636 335.772 426.636ZM336.181 383.455C339.302 383.455 341.938 382.682 344.09 381.136C346.272 379.561 347.938 377.318 349.09 374.409C350.272 371.47 350.863 367.955 350.863 363.864C350.863 359.773 350.287 356.227 349.135 353.227C347.984 350.197 346.317 347.848 344.135 346.182C341.954 344.515 339.302 343.682 336.181 343.682C332.999 343.682 330.317 344.545 328.135 346.273C325.954 347.97 324.302 350.333 323.181 353.364C322.06 356.394 321.499 359.894 321.499 363.864C321.499 367.894 322.06 371.379 323.181 374.318C324.332 377.227 325.984 379.485 328.135 381.091C330.317 382.667 332.999 383.455 336.181 383.455Z" fill="white"/>
<rect width="155" height="13" transform="translate(159 649)" fill="#DD0808"/>
<rect width="30" height="13" transform="translate(197 649)" fill="white"/>
<rect width="12" height="13" transform="translate(205 649)" fill="#16139C"/>
<path d="M168.824 670.545C168.824 671.721 168.604 672.728 168.163 673.566C167.727 674.4 167.13 675.039 166.374 675.483C165.621 675.927 164.767 676.149 163.811 676.149C162.856 676.149 162 675.927 161.244 675.483C160.491 675.036 159.895 674.395 159.454 673.56C159.017 672.722 158.799 671.717 158.799 670.545C158.799 669.37 159.017 668.365 159.454 667.531C159.895 666.692 160.491 666.051 161.244 665.608C162 665.164 162.856 664.942 163.811 664.942C164.767 664.942 165.621 665.164 166.374 665.608C167.13 666.051 167.727 666.692 168.163 667.531C168.604 668.365 168.824 669.37 168.824 670.545ZM166.837 670.545C166.837 669.718 166.707 669.02 166.448 668.452C166.192 667.88 165.837 667.449 165.383 667.158C164.928 666.863 164.404 666.716 163.811 666.716C163.218 666.716 162.695 666.863 162.24 667.158C161.786 667.449 161.429 667.88 161.169 668.452C160.914 669.02 160.786 669.718 160.786 670.545C160.786 671.373 160.914 672.072 161.169 672.644C161.429 673.212 161.786 673.644 162.24 673.939C162.695 674.23 163.218 674.375 163.811 674.375C164.404 674.375 164.928 674.23 165.383 673.939C165.837 673.644 166.192 673.212 166.448 672.644C166.707 672.072 166.837 671.373 166.837 670.545ZM173.092 676L173.092 665.091L175.068 665.091L175.068 674.343L179.873 674.343L179.873 676L173.092 676ZM182.144 665.091L184.376 665.091L187.044 669.917L187.151 669.917L189.82 665.091L192.052 665.091L188.083 671.93L188.083 676L186.112 676L186.112 671.93L182.144 665.091ZM195.851 665.091L198.27 665.091L201.508 672.996L201.636 672.996L204.875 665.091L207.293 665.091L207.293 676L205.397 676L205.397 668.505L205.295 668.505L202.281 675.968L200.864 675.968L197.849 668.489L197.747 668.489L197.748 676L195.851 676L195.851 665.091ZM211.845 676L211.845 665.091L215.936 665.091C216.774 665.091 217.477 665.247 218.045 665.56C218.617 665.872 219.048 666.302 219.34 666.849C219.634 667.392 219.782 668.01 219.782 668.702C219.782 669.402 219.634 670.023 219.34 670.567C219.045 671.11 218.61 671.538 218.035 671.85C217.459 672.159 216.751 672.314 215.909 672.314L213.198 672.314L213.198 670.689L215.643 670.689C216.133 670.689 216.534 670.604 216.847 670.434C217.159 670.263 217.39 670.029 217.539 669.73C217.692 669.432 217.768 669.089 217.768 668.702C217.768 668.315 217.692 667.974 217.539 667.68C217.39 667.385 217.157 667.156 216.841 666.993C216.529 666.826 216.126 666.742 215.632 666.742L213.821 666.742L213.821 676L211.845 676ZM225.874 665.091L225.874 676L223.898 676L223.898 665.091L225.874 665.091ZM231.815 676L229.706 676L233.547 665.091L235.986 665.091L239.832 676L237.723 676L234.809 667.328L234.724 667.328L231.815 676ZM231.885 671.723L237.637 671.723L237.637 673.31L231.885 673.31L231.885 671.723ZM241.871 666.747L241.871 665.091L250.575 665.091L250.575 666.747L247.203 666.747L247.203 676L245.243 676L245.243 666.747L241.871 666.747ZM263.917 670.545C263.917 671.721 263.697 672.728 263.257 673.566C262.82 674.4 262.224 675.039 261.467 675.483C260.714 675.927 259.86 676.149 258.905 676.149C257.95 676.149 257.094 675.927 256.338 675.483C255.585 675.036 254.988 674.395 254.548 673.56C254.111 672.722 253.893 671.717 253.893 670.545C253.893 669.37 254.111 668.365 254.548 667.531C254.988 666.692 255.585 666.051 256.338 665.608C257.094 665.164 257.95 664.942 258.905 664.942C259.86 664.942 260.714 665.164 261.467 665.608C262.224 666.051 262.82 666.692 263.257 667.531C263.697 668.365 263.917 669.37 263.917 670.545ZM261.931 670.545C261.931 669.718 261.801 669.02 261.542 668.452C261.286 667.88 260.931 667.449 260.476 667.158C260.022 666.863 259.498 666.716 258.905 666.716C258.312 666.716 257.788 666.863 257.334 667.158C256.879 667.449 256.522 667.88 256.263 668.452C256.007 669.02 255.879 669.718 255.879 670.545C255.879 671.373 256.007 672.072 256.263 672.644C256.522 673.212 256.879 673.644 257.334 673.939C257.788 674.23 258.312 674.375 258.905 674.375C259.498 674.375 260.022 674.23 260.476 673.939C260.931 673.644 261.286 673.212 261.542 672.644C261.801 672.072 261.931 671.373 261.931 670.545ZM268.186 676L268.186 665.091L272.277 665.091C273.115 665.091 273.818 665.247 274.386 665.56C274.958 665.872 275.389 666.302 275.68 666.849C275.975 667.392 276.123 668.01 276.123 668.702C276.123 669.402 275.975 670.023 275.68 670.567C275.386 671.11 274.951 671.538 274.375 671.85C273.8 672.159 273.092 672.314 272.25 672.314L269.539 672.314L269.539 670.689L271.984 670.689C272.474 670.689 272.875 670.604 273.188 670.434C273.5 670.263 273.731 670.029 273.88 669.73C274.033 669.432 274.109 669.089 274.109 668.702C274.109 668.315 274.033 667.974 273.88 667.68C273.731 667.385 273.498 667.156 273.182 666.993C272.87 666.826 272.467 666.742 271.973 666.742L270.162 666.742L270.162 676L268.186 676ZM280.239 676L280.239 665.091L284.33 665.091C285.168 665.091 285.871 665.247 286.439 665.56C287.011 665.872 287.443 666.302 287.734 666.849C288.028 667.392 288.176 668.01 288.176 668.702C288.176 669.402 288.029 670.023 287.734 670.567C287.439 671.11 287.004 671.538 286.429 671.85C285.853 672.159 285.145 672.314 284.303 672.314L281.592 672.314L281.592 670.689L284.037 670.689C284.527 670.689 284.928 670.604 285.241 670.434C285.553 670.263 285.784 670.029 285.933 669.73C286.086 669.432 286.162 669.089 286.162 668.702C286.162 668.315 286.086 667.974 285.933 667.68C285.784 667.385 285.552 667.156 285.236 666.993C284.923 666.826 284.52 666.742 284.026 666.742L282.215 666.742L282.215 676L280.239 676ZM292.292 676L292.292 665.091L299.388 665.091L299.388 666.747L294.269 666.747L294.269 669.709L299.02 669.709L299.02 671.366L294.269 671.366L294.269 674.343L299.43 674.343L299.43 676L292.292 676ZM312.769 665.091L312.769 676L311.011 676L305.87 668.569L305.78 668.569L305.78 676L303.804 676L303.804 665.091L305.572 665.091L310.707 672.527L310.803 672.527L310.803 665.091L312.769 665.091Z" fill="#F5F9F6"/>
<path d="M137.092 467V439.364H148.508C150.577 439.364 152.363 439.768 153.865 440.578C155.376 441.379 156.541 442.499 157.36 443.938C158.179 445.369 158.588 447.033 158.588 448.931C158.588 450.838 158.17 452.507 157.333 453.938C156.505 455.359 155.322 456.461 153.784 457.244C152.246 458.026 150.42 458.418 148.305 458.418H141.261V453.155H147.064C148.071 453.155 148.913 452.979 149.587 452.629C150.271 452.278 150.788 451.787 151.139 451.158C151.49 450.519 151.665 449.777 151.665 448.931C151.665 448.076 151.49 447.339 151.139 446.718C150.788 446.088 150.271 445.603 149.587 445.261C148.904 444.919 148.063 444.748 147.064 444.748H143.771V467H137.092ZM167.581 467V439.364H178.997C181.066 439.364 182.852 439.737 184.354 440.484C185.865 441.221 187.03 442.283 187.849 443.668C188.668 445.045 189.077 446.678 189.077 448.567C189.077 450.483 188.659 452.111 187.822 453.452C186.986 454.783 185.798 455.8 184.26 456.501C182.721 457.194 180.9 457.54 178.794 457.54H171.575V452.278H177.553C178.561 452.278 179.402 452.147 180.076 451.886C180.76 451.616 181.277 451.212 181.628 450.672C181.979 450.123 182.155 449.421 182.155 448.567C182.155 447.712 181.979 447.006 181.628 446.448C181.277 445.881 180.76 445.459 180.076 445.18C179.393 444.892 178.552 444.748 177.553 444.748H174.26V467H167.581ZM183.14 454.369L190.022 467H182.735L175.988 454.369H183.14ZM224.525 453.182C224.525 456.223 223.941 458.8 222.771 460.914C221.602 463.028 220.018 464.634 218.021 465.732C216.033 466.829 213.802 467.378 211.328 467.378C208.845 467.378 206.609 466.825 204.621 465.718C202.633 464.612 201.054 463.006 199.885 460.901C198.724 458.786 198.144 456.214 198.144 453.182C198.144 450.141 198.724 447.564 199.885 445.45C201.054 443.335 202.633 441.73 204.621 440.632C206.609 439.535 208.845 438.986 211.328 438.986C213.802 438.986 216.033 439.535 218.021 440.632C220.018 441.73 221.602 443.335 222.771 445.45C223.941 447.564 224.525 450.141 224.525 453.182ZM217.697 453.182C217.697 451.383 217.441 449.862 216.928 448.621C216.424 447.379 215.696 446.439 214.742 445.8C213.797 445.162 212.659 444.842 211.328 444.842C210.005 444.842 208.867 445.162 207.914 445.8C206.96 446.439 206.227 447.379 205.714 448.621C205.21 449.862 204.959 451.383 204.959 453.182C204.959 454.981 205.21 456.501 205.714 457.743C206.227 458.984 206.96 459.924 207.914 460.563C208.867 461.202 210.005 461.521 211.328 461.521C212.659 461.521 213.797 461.202 214.742 460.563C215.696 459.924 216.424 458.984 216.928 457.743C217.441 456.501 217.697 454.981 217.697 453.182ZM231.959 444.788V439.364H255.318V444.788H246.938V467H240.353V444.788H231.959ZM264.28 467V439.364H283.55V444.788H270.96V450.456H282.565V455.894H270.96V461.575H283.55V467H264.28ZM300.113 439.364V467H293.433V439.364H300.113ZM333.527 439.364V467H327.859L316.862 451.05H316.686V467H310.006V439.364H315.755L326.631 455.287H326.861V439.364H333.527Z" fill="#F5F5F5"/>
<path d="M105.435 508V493.455H110.889C112.007 493.455 112.944 493.649 113.702 494.037C114.464 494.425 115.039 494.97 115.428 495.67C115.821 496.366 116.017 497.179 116.017 498.107C116.017 499.039 115.818 499.849 115.42 500.536C115.027 501.217 114.447 501.745 113.68 502.119C112.913 502.489 111.971 502.673 110.854 502.673H106.969V500.486H110.499C111.152 500.486 111.687 500.396 112.104 500.216C112.52 500.031 112.828 499.764 113.027 499.413C113.231 499.058 113.332 498.623 113.332 498.107C113.332 497.59 113.231 497.15 113.027 496.786C112.823 496.416 112.513 496.137 112.097 495.947C111.68 495.753 111.143 495.656 110.484 495.656H108.07V508H105.435ZM112.949 501.409L116.55 508H113.609L110.072 501.409H112.949ZM121.642 508V493.455H131.103V495.663H124.277V499.612H130.613V501.821H124.277V505.791H131.16V508H121.642ZM144.896 497.453C144.829 496.833 144.55 496.35 144.058 496.004C143.57 495.659 142.936 495.486 142.154 495.486C141.605 495.486 141.134 495.569 140.741 495.734C140.348 495.9 140.047 496.125 139.839 496.409C139.631 496.693 139.524 497.018 139.519 497.382C139.519 497.685 139.588 497.948 139.725 498.17C139.867 498.393 140.059 498.582 140.301 498.739C140.542 498.89 140.81 499.018 141.103 499.122C141.397 499.226 141.693 499.314 141.991 499.385L143.355 499.726C143.904 499.854 144.432 500.027 144.938 500.244C145.45 500.462 145.907 500.737 146.309 501.068C146.716 501.4 147.038 501.8 147.275 502.268C147.512 502.737 147.63 503.286 147.63 503.916C147.63 504.768 147.412 505.519 146.977 506.168C146.541 506.812 145.911 507.316 145.087 507.68C144.268 508.04 143.276 508.22 142.112 508.22C140.98 508.22 139.998 508.045 139.164 507.695C138.336 507.344 137.687 506.833 137.218 506.161C136.754 505.488 136.503 504.669 136.465 503.703H139.058C139.096 504.21 139.252 504.631 139.526 504.967C139.801 505.304 140.159 505.554 140.599 505.72C141.044 505.886 141.541 505.969 142.09 505.969C142.663 505.969 143.165 505.884 143.596 505.713C144.032 505.538 144.373 505.296 144.619 504.989C144.865 504.676 144.99 504.312 144.995 503.895C144.99 503.516 144.879 503.204 144.661 502.957C144.444 502.706 144.138 502.498 143.745 502.332C143.357 502.162 142.902 502.01 142.382 501.878L140.727 501.452C139.529 501.144 138.582 500.678 137.886 500.053C137.195 499.423 136.849 498.587 136.849 497.545C136.849 496.688 137.081 495.938 137.545 495.294C138.014 494.65 138.65 494.151 139.455 493.795C140.26 493.436 141.172 493.256 142.19 493.256C143.222 493.256 144.126 493.436 144.903 493.795C145.684 494.151 146.297 494.645 146.742 495.28C147.187 495.91 147.417 496.634 147.431 497.453H144.896ZM152.54 495.663V493.455H164.145V495.663H159.649V508H157.036V495.663H152.54ZM172.217 493.455V508H169.582V493.455H172.217ZM177.631 495.663V493.455H189.237V495.663H184.741V508H182.127V495.663H177.631ZM203.843 493.455H206.478V502.957C206.478 503.999 206.231 504.915 205.739 505.706C205.251 506.497 204.565 507.115 203.679 507.56C202.794 508 201.759 508.22 200.576 508.22C199.387 508.22 198.35 508 197.465 507.56C196.579 507.115 195.893 506.497 195.405 505.706C194.918 504.915 194.674 503.999 194.674 502.957V493.455H197.309V502.737C197.309 503.343 197.441 503.883 197.706 504.357C197.976 504.83 198.355 505.202 198.843 505.472C199.33 505.737 199.908 505.869 200.576 505.869C201.243 505.869 201.821 505.737 202.309 505.472C202.801 505.202 203.18 504.83 203.445 504.357C203.71 503.883 203.843 503.343 203.843 502.737V493.455ZM220.447 497.453C220.38 496.833 220.101 496.35 219.608 496.004C219.121 495.659 218.486 495.486 217.705 495.486C217.156 495.486 216.685 495.569 216.292 495.734C215.899 495.9 215.598 496.125 215.39 496.409C215.181 496.693 215.075 497.018 215.07 497.382C215.07 497.685 215.139 497.948 215.276 498.17C215.418 498.393 215.61 498.582 215.851 498.739C216.093 498.89 216.36 499.018 216.654 499.122C216.947 499.226 217.243 499.314 217.542 499.385L218.905 499.726C219.455 499.854 219.983 500.027 220.489 500.244C221 500.462 221.457 500.737 221.86 501.068C222.267 501.4 222.589 501.8 222.826 502.268C223.063 502.737 223.181 503.286 223.181 503.916C223.181 504.768 222.963 505.519 222.527 506.168C222.092 506.812 221.462 507.316 220.638 507.68C219.819 508.04 218.827 508.22 217.662 508.22C216.531 508.22 215.548 508.045 214.715 507.695C213.886 507.344 213.238 506.833 212.769 506.161C212.305 505.488 212.054 504.669 212.016 503.703H214.608C214.646 504.21 214.803 504.631 215.077 504.967C215.352 505.304 215.709 505.554 216.15 505.72C216.595 505.886 217.092 505.969 217.641 505.969C218.214 505.969 218.716 505.884 219.147 505.713C219.582 505.538 219.923 505.296 220.17 504.989C220.416 504.676 220.541 504.312 220.546 503.895C220.541 503.516 220.43 503.204 220.212 502.957C219.994 502.706 219.689 502.498 219.296 502.332C218.908 502.162 218.453 502.01 217.932 501.878L216.277 501.452C215.08 501.144 214.133 500.678 213.437 500.053C212.745 499.423 212.4 498.587 212.4 497.545C212.4 496.688 212.632 495.938 213.096 495.294C213.564 494.65 214.201 494.151 215.006 493.795C215.811 493.436 216.723 493.256 217.741 493.256C218.773 493.256 219.677 493.436 220.454 493.795C221.235 494.151 221.848 494.645 222.293 495.28C222.738 495.91 222.968 496.634 222.982 497.453H220.447ZM234.469 493.455H237.082V503.682C237.078 504.619 236.879 505.427 236.486 506.104C236.093 506.776 235.543 507.295 234.838 507.659C234.137 508.019 233.32 508.199 232.388 508.199C231.535 508.199 230.768 508.047 230.087 507.744C229.409 507.437 228.872 506.982 228.474 506.381C228.077 505.779 227.878 505.031 227.878 504.136H230.498C230.503 504.529 230.588 504.868 230.754 505.152C230.925 505.436 231.159 505.654 231.457 505.805C231.756 505.957 232.099 506.033 232.487 506.033C232.908 506.033 233.266 505.945 233.56 505.77C233.853 505.59 234.076 505.325 234.227 504.974C234.383 504.624 234.464 504.193 234.469 503.682V493.455ZM256.138 500.727C256.138 502.295 255.845 503.637 255.257 504.754C254.675 505.867 253.88 506.719 252.871 507.311C251.867 507.903 250.729 508.199 249.455 508.199C248.181 508.199 247.04 507.903 246.032 507.311C245.028 506.714 244.232 505.86 243.645 504.747C243.063 503.63 242.772 502.29 242.772 500.727C242.772 499.16 243.063 497.82 243.645 496.707C244.232 495.59 245.028 494.735 246.032 494.143C247.04 493.552 248.181 493.256 249.455 493.256C250.729 493.256 251.867 493.552 252.871 494.143C253.88 494.735 254.675 495.59 255.257 496.707C255.845 497.82 256.138 499.16 256.138 500.727ZM253.489 500.727C253.489 499.624 253.316 498.694 252.97 497.936C252.63 497.174 252.156 496.598 251.55 496.21C250.944 495.817 250.246 495.621 249.455 495.621C248.664 495.621 247.966 495.817 247.36 496.21C246.754 496.598 246.278 497.174 245.932 497.936C245.591 498.694 245.421 499.624 245.421 500.727C245.421 501.83 245.591 502.763 245.932 503.526C246.278 504.283 246.754 504.858 247.36 505.251C247.966 505.64 248.664 505.834 249.455 505.834C250.246 505.834 250.944 505.64 251.55 505.251C252.156 504.858 252.63 504.283 252.97 503.526C253.316 502.763 253.489 501.83 253.489 500.727ZM273.782 493.455V508H271.439L264.585 498.092H264.464V508H261.829V493.455H264.187L271.034 503.369H271.162V493.455H273.782ZM287.758 497.453C287.692 496.833 287.413 496.35 286.92 496.004C286.432 495.659 285.798 495.486 285.017 495.486C284.468 495.486 283.996 495.569 283.603 495.734C283.21 495.9 282.91 496.125 282.701 496.409C282.493 496.693 282.387 497.018 282.382 497.382C282.382 497.685 282.45 497.948 282.588 498.17C282.73 498.393 282.922 498.582 283.163 498.739C283.405 498.89 283.672 499.018 283.966 499.122C284.259 499.226 284.555 499.314 284.853 499.385L286.217 499.726C286.766 499.854 287.294 500.027 287.801 500.244C288.312 500.462 288.769 500.737 289.172 501.068C289.579 501.4 289.901 501.8 290.137 502.268C290.374 502.737 290.493 503.286 290.493 503.916C290.493 504.768 290.275 505.519 289.839 506.168C289.404 506.812 288.774 507.316 287.95 507.68C287.131 508.04 286.139 508.22 284.974 508.22C283.843 508.22 282.86 508.045 282.027 507.695C281.198 507.344 280.549 506.833 280.081 506.161C279.617 505.488 279.366 504.669 279.328 503.703H281.92C281.958 504.21 282.114 504.631 282.389 504.967C282.664 505.304 283.021 505.554 283.461 505.72C283.906 505.886 284.404 505.969 284.953 505.969C285.526 505.969 286.028 505.884 286.459 505.713C286.894 505.538 287.235 505.296 287.481 504.989C287.727 504.676 287.853 504.312 287.858 503.895C287.853 503.516 287.742 503.204 287.524 502.957C287.306 502.706 287.001 502.498 286.608 502.332C286.219 502.162 285.765 502.01 285.244 501.878L283.589 501.452C282.391 501.144 281.444 500.678 280.748 500.053C280.057 499.423 279.711 498.587 279.711 497.545C279.711 496.688 279.943 495.938 280.407 495.294C280.876 494.65 281.513 494.151 282.318 493.795C283.123 493.436 284.034 493.256 285.052 493.256C286.084 493.256 286.989 493.436 287.765 493.795C288.547 494.151 289.16 494.645 289.605 495.28C290.05 495.91 290.28 496.634 290.294 497.453H287.758ZM300.971 508H296.042V493.455H301.07C302.514 493.455 303.755 493.746 304.792 494.328C305.833 494.906 306.634 495.737 307.192 496.821C307.751 497.905 308.03 499.203 308.03 500.713C308.03 502.228 307.749 503.53 307.185 504.619C306.626 505.708 305.819 506.544 304.763 507.126C303.712 507.709 302.448 508 300.971 508ZM298.677 505.72H300.843C301.856 505.72 302.701 505.536 303.378 505.166C304.055 504.792 304.564 504.236 304.905 503.497C305.246 502.754 305.417 501.826 305.417 500.713C305.417 499.6 305.246 498.677 304.905 497.943C304.564 497.205 304.06 496.653 303.393 496.288C302.73 495.919 301.906 495.734 300.921 495.734H298.677V505.72ZM313.734 508V493.455H319.188C320.306 493.455 321.243 493.649 322.001 494.037C322.763 494.425 323.339 494.97 323.727 495.67C324.12 496.366 324.316 497.179 324.316 498.107C324.316 499.039 324.117 499.849 323.72 500.536C323.327 501.217 322.747 501.745 321.98 502.119C321.213 502.489 320.27 502.673 319.153 502.673H315.268V500.486H318.798C319.451 500.486 319.986 500.396 320.403 500.216C320.82 500.031 321.127 499.764 321.326 499.413C321.53 499.058 321.632 498.623 321.632 498.107C321.632 497.59 321.53 497.15 321.326 496.786C321.123 496.416 320.812 496.137 320.396 495.947C319.979 495.753 319.442 495.656 318.784 495.656H316.369V508H313.734ZM321.248 501.409L324.849 508H321.909L318.372 501.409H321.248ZM332.577 493.455V508H329.942V493.455H332.577ZM338.63 508V493.455H341.265V500.138H341.442L347.117 493.455H350.335L344.71 499.982L350.384 508H347.217L342.877 501.764L341.265 503.668V508H338.63ZM355.365 508V493.455H358V500.138H358.178L363.852 493.455H367.07L361.445 499.982L367.119 508H363.952L359.612 501.764L358 503.668V508H355.365Z" fill="#F5F5F5"/>
<path d="M86.642 568V533.091H101.199C103.813 533.091 106 533.46 107.761 534.199C109.534 534.937 110.864 535.972 111.75 537.301C112.648 538.631 113.097 540.17 113.097 541.92C113.097 543.25 112.818 544.438 112.261 545.483C111.705 546.517 110.938 547.375 109.96 548.057C108.983 548.739 107.852 549.216 106.568 549.489V549.83C107.977 549.898 109.278 550.278 110.472 550.972C111.676 551.665 112.642 552.631 113.369 553.869C114.097 555.097 114.46 556.551 114.46 558.233C114.46 560.108 113.983 561.784 113.028 563.261C112.074 564.727 110.693 565.886 108.886 566.739C107.08 567.58 104.886 568 102.307 568H86.642ZM95.0795 561.199H100.295C102.125 561.199 103.472 560.852 104.335 560.159C105.21 559.466 105.648 558.5 105.648 557.261C105.648 556.364 105.438 555.591 105.017 554.943C104.597 554.284 104 553.778 103.227 553.426C102.455 553.062 101.528 552.881 100.449 552.881H95.0795V561.199ZM95.0795 547.443H99.75C100.67 547.443 101.489 547.29 102.205 546.983C102.92 546.676 103.477 546.233 103.875 545.653C104.284 545.074 104.489 544.375 104.489 543.557C104.489 542.386 104.074 541.466 103.244 540.795C102.415 540.125 101.295 539.79 99.8864 539.79H95.0795V547.443ZM133.268 568H124.2L135.978 533.091H147.211L158.99 568H149.922L141.723 541.886H141.45L133.268 568ZM132.058 554.261H151.013V560.67H132.058V554.261ZM199.659 533.091V568H192.499L178.607 547.852H178.386V568H169.948V533.091H177.21L190.948 553.205H191.238V533.091H199.659ZM219.715 568H210.647L222.425 533.091H233.658L245.437 568H236.368L228.17 541.886H227.897L219.715 568ZM218.505 554.261H237.459V560.67H218.505V554.261ZM286.105 533.091V568H278.946L265.054 547.852H264.833V568H256.395V533.091H263.657L277.395 553.205H277.685V533.091H286.105ZM349.072 550.545C349.072 554.386 348.334 557.642 346.856 560.312C345.379 562.983 343.379 565.011 340.856 566.398C338.345 567.784 335.527 568.477 332.402 568.477C329.265 568.477 326.441 567.778 323.93 566.381C321.419 564.983 319.424 562.955 317.947 560.295C316.481 557.625 315.748 554.375 315.748 550.545C315.748 546.705 316.481 543.449 317.947 540.778C319.424 538.108 321.419 536.08 323.93 534.693C326.441 533.307 329.265 532.614 332.402 532.614C335.527 532.614 338.345 533.307 340.856 534.693C343.379 536.08 345.379 538.108 346.856 540.778C348.334 543.449 349.072 546.705 349.072 550.545ZM340.447 550.545C340.447 548.273 340.123 546.352 339.476 544.784C338.839 543.216 337.919 542.028 336.714 541.222C335.521 540.415 334.084 540.011 332.402 540.011C330.731 540.011 329.294 540.415 328.089 541.222C326.885 542.028 325.959 543.216 325.311 544.784C324.674 546.352 324.356 548.273 324.356 550.545C324.356 552.818 324.674 554.739 325.311 556.307C325.959 557.875 326.885 559.062 328.089 559.869C329.294 560.676 330.731 561.08 332.402 561.08C334.084 561.08 335.521 560.676 336.714 559.869C337.919 559.062 338.839 557.875 339.476 556.307C340.123 554.739 340.447 552.818 340.447 550.545ZM384.107 544.494C383.914 543.778 383.63 543.148 383.255 542.602C382.88 542.045 382.42 541.574 381.874 541.188C381.329 540.801 380.704 540.511 379.999 540.318C379.295 540.114 378.522 540.011 377.681 540.011C375.988 540.011 374.522 540.42 373.284 541.239C372.056 542.057 371.107 543.25 370.437 544.818C369.766 546.375 369.431 548.267 369.431 550.494C369.431 552.733 369.755 554.642 370.403 556.222C371.051 557.801 371.988 559.006 373.215 559.835C374.443 560.665 375.931 561.08 377.681 561.08C379.227 561.08 380.534 560.83 381.602 560.33C382.681 559.818 383.499 559.097 384.056 558.165C384.613 557.233 384.891 556.136 384.891 554.875L386.46 555.062H377.971V548.909H393.022V553.528C393.022 556.653 392.357 559.33 391.028 561.557C389.71 563.784 387.891 565.494 385.573 566.688C383.266 567.881 380.613 568.477 377.613 568.477C374.284 568.477 371.357 567.756 368.835 566.312C366.312 564.869 364.346 562.812 362.937 560.142C361.528 557.46 360.823 554.278 360.823 550.597C360.823 547.733 361.249 545.193 362.102 542.977C362.954 540.75 364.141 538.864 365.664 537.318C367.198 535.773 368.971 534.602 370.982 533.807C373.005 533.011 375.181 532.614 377.511 532.614C379.534 532.614 381.414 532.903 383.153 533.483C384.903 534.062 386.448 534.881 387.789 535.938C389.141 536.994 390.238 538.25 391.079 539.705C391.92 541.159 392.443 542.756 392.647 544.494H384.107Z" fill="#F5F5F5"/>
<path d="M109.824 579.091H118.142V603.227C118.131 605.489 117.591 607.466 116.523 609.159C115.455 610.841 113.977 612.148 112.091 613.08C110.216 614.011 108.045 614.477 105.58 614.477C103.398 614.477 101.415 614.097 99.6307 613.335C97.858 612.574 96.4432 611.392 95.3864 609.79C94.3409 608.187 93.8239 606.136 93.8352 603.636H102.239C102.273 604.534 102.443 605.301 102.75 605.938C103.068 606.562 103.506 607.034 104.062 607.352C104.619 607.67 105.284 607.83 106.057 607.83C106.864 607.83 107.545 607.659 108.102 607.318C108.659 606.966 109.08 606.449 109.364 605.767C109.659 605.085 109.813 604.239 109.824 603.227V579.091ZM163.588 596.545C163.588 600.386 162.849 603.642 161.372 606.312C159.895 608.983 157.895 611.011 155.372 612.398C152.861 613.784 150.042 614.477 146.917 614.477C143.781 614.477 140.957 613.778 138.446 612.381C135.934 610.983 133.94 608.955 132.463 606.295C130.997 603.625 130.264 600.375 130.264 596.545C130.264 592.705 130.997 589.449 132.463 586.778C133.94 584.108 135.934 582.08 138.446 580.693C140.957 579.307 143.781 578.614 146.917 578.614C150.042 578.614 152.861 579.307 155.372 580.693C157.895 582.08 159.895 584.108 161.372 586.778C162.849 589.449 163.588 592.705 163.588 596.545ZM154.963 596.545C154.963 594.273 154.639 592.352 153.991 590.784C153.355 589.216 152.434 588.028 151.23 587.222C150.037 586.415 148.599 586.011 146.917 586.011C145.247 586.011 143.809 586.415 142.605 587.222C141.4 588.028 140.474 589.216 139.826 590.784C139.19 592.352 138.872 594.273 138.872 596.545C138.872 598.818 139.19 600.739 139.826 602.307C140.474 603.875 141.4 605.062 142.605 605.869C143.809 606.676 145.247 607.08 146.917 607.08C148.599 607.08 150.037 606.676 151.23 605.869C152.434 605.062 153.355 603.875 153.991 602.307C154.639 600.739 154.963 598.818 154.963 596.545ZM175.714 614V579.091H190.134C192.748 579.091 195.004 579.562 196.901 580.506C198.811 581.437 200.282 582.778 201.316 584.528C202.35 586.267 202.867 588.33 202.867 590.716C202.867 593.136 202.339 595.193 201.282 596.886C200.225 598.568 198.725 599.852 196.782 600.739C194.839 601.614 192.538 602.051 189.879 602.051H180.759V595.403H188.311C189.583 595.403 190.646 595.239 191.498 594.909C192.362 594.568 193.015 594.057 193.458 593.375C193.901 592.682 194.123 591.795 194.123 590.716C194.123 589.636 193.901 588.744 193.458 588.04C193.015 587.324 192.362 586.79 191.498 586.438C190.634 586.074 189.572 585.892 188.311 585.892H184.151V614H175.714ZM195.367 598.045L204.061 614H194.856L186.333 598.045H195.367ZM227.599 614H214.695V579.091H227.582C231.138 579.091 234.201 579.79 236.769 581.188C239.349 582.574 241.337 584.574 242.735 587.188C244.133 589.79 244.832 592.903 244.832 596.528C244.832 600.165 244.133 603.29 242.735 605.903C241.349 608.517 239.366 610.523 236.786 611.92C234.207 613.307 231.144 614 227.599 614ZM223.133 606.807H227.275C229.229 606.807 230.883 606.477 232.235 605.818C233.599 605.148 234.627 604.062 235.32 602.562C236.025 601.051 236.377 599.04 236.377 596.528C236.377 594.017 236.025 592.017 235.32 590.528C234.616 589.028 233.576 587.949 232.201 587.29C230.837 586.619 229.155 586.284 227.155 586.284H223.133V606.807ZM256.958 614V579.091H271.514C274.128 579.091 276.316 579.46 278.077 580.199C279.85 580.937 281.179 581.972 282.066 583.301C282.963 584.631 283.412 586.17 283.412 587.92C283.412 589.25 283.134 590.438 282.577 591.483C282.02 592.517 281.253 593.375 280.276 594.057C279.299 594.739 278.168 595.216 276.884 595.489V595.83C278.293 595.898 279.594 596.278 280.787 596.972C281.992 597.665 282.958 598.631 283.685 599.869C284.412 601.097 284.776 602.551 284.776 604.233C284.776 606.108 284.299 607.784 283.344 609.261C282.389 610.727 281.009 611.886 279.202 612.739C277.395 613.58 275.202 614 272.622 614H256.958ZM265.395 607.199H270.611C272.441 607.199 273.787 606.852 274.651 606.159C275.526 605.466 275.963 604.5 275.963 603.261C275.963 602.364 275.753 601.591 275.333 600.943C274.912 600.284 274.316 599.778 273.543 599.426C272.77 599.062 271.844 598.881 270.764 598.881H265.395V607.199ZM265.395 593.443H270.066C270.986 593.443 271.804 593.29 272.52 592.983C273.236 592.676 273.793 592.233 274.191 591.653C274.6 591.074 274.804 590.375 274.804 589.557C274.804 588.386 274.389 587.466 273.56 586.795C272.73 586.125 271.611 585.79 270.202 585.79H265.395V593.443ZM294.516 614L308.8 579.091H340.828V585.943H324.925V593.102H339.584V599.972H324.925V607.148H340.828V614H316.487V587.528H314.084L303.788 614H294.516ZM302.697 606.67V600.261H321.379V606.67H302.697ZM353.295 614V579.091H367.716C370.329 579.091 372.585 579.562 374.483 580.506C376.392 581.437 377.863 582.778 378.897 584.528C379.932 586.267 380.449 588.33 380.449 590.716C380.449 593.136 379.92 595.193 378.863 596.886C377.807 598.568 376.307 599.852 374.363 600.739C372.42 601.614 370.119 602.051 367.46 602.051H358.341V595.403H365.892C367.165 595.403 368.227 595.239 369.079 594.909C369.943 594.568 370.596 594.057 371.04 593.375C371.483 592.682 371.704 591.795 371.704 590.716C371.704 589.636 371.483 588.744 371.04 588.04C370.596 587.324 369.943 586.79 369.079 586.438C368.216 586.074 367.153 585.892 365.892 585.892H361.733V614H353.295ZM372.949 598.045L381.642 614H372.437L363.915 598.045H372.949Z" fill="#F5F5F5"/>
<path d="M165 722.254C74.5 677.5 9 722.254 -8.5 743.254V853.754H504.5C529 816.921 512 730.5 504.5 773.254C485.862 879.5 279.81 779.031 165 722.254Z" fill="url(#paint0_linear_6_243)" stroke="#16139C" stroke-width="0.5"/>
<path d="M352.254 757.191C442.754 712.436 508.254 757.191 525.754 778.191V888.691H12.7544C-11.7456 851.857 5.25439 765.436 12.7544 808.191C31.3922 914.436 237.444 813.967 352.254 757.191Z" fill="url(#paint1_linear_6_243)"/>
<path d="M142.5 739.001C67 763 3 787 -8.5 779.256V889.755L546 915.001C618 877 565.572 845.036 537.5 831C363.5 744 250.293 704.737 142.5 739.001Z" fill="url(#paint2_linear_6_243)"/>
<path d="M99.1585 90.0918C24.5 90.0918 -57.4684 67.4735 -78 42.8047V-87H530.909C559.653 -43.7317 599.895 35.7565 530.909 7.56358C444.676 -27.6775 260.527 90.0918 99.1585 90.0918Z" fill="url(#paint3_linear_6_243)" stroke="#16139C" stroke-width="0.5"/>
<path d="M341.966 111.5C436.5 136.5 497.966 111.5 515.466 90.4997V-20.0003H-3.53369C-42 -10.5 -47.7323 106.106 -3.53369 60.4997C42.5 13 218.141 78.7531 341.966 111.5Z" fill="url(#paint4_linear_6_243)"/>
<path d="M364 86C442.034 100.746 497.966 75.4998 515.466 54.4998V-56H-3.53369C-28.0337 -19.1667 -64.551 42.116 -3.53369 24.4999C112.5 -9 228.873 60.4656 364 86Z" fill="url(#paint5_linear_6_243)"/>
<path d="M146.5 769.276C71.8964 810.395 -27 806.723 -27 800.5V911L486 900.776C510.5 863.943 479 819.924 486 820.276C562.903 824.147 298.5 685.5 146.5 769.276Z" fill="url(#paint6_linear_6_243)"/>
</g>
<defs>
<linearGradient id="paint0_linear_6_243" x1="89" y1="688" x2="440.5" y2="882" gradientUnits="userSpaceOnUse">
<stop stop-color="#FFB800"/>
<stop offset="0.941577" stop-color="#FFE299"/>
</linearGradient>
<linearGradient id="paint1_linear_6_243" x1="428.254" y1="722.936" x2="76.7544" y2="916.936" gradientUnits="userSpaceOnUse">
<stop stop-color="#FFB800"/>
<stop offset="0.941577" stop-color="#FFE299"/>
</linearGradient>
<linearGradient id="paint2_linear_6_243" x1="15.868" y1="810.724" x2="316.5" y2="915" gradientUnits="userSpaceOnUse">
<stop stop-color="#DB3E3E"/>
<stop offset="0.925" stop-color="#EA5151"/>
</linearGradient>
<linearGradient id="paint3_linear_6_243" x1="-57.691" y1="-83.8742" x2="311.514" y2="-26.5077" gradientUnits="userSpaceOnUse">
<stop stop-color="#901414"/>
<stop offset="0.925" stop-color="#EA5151"/>
</linearGradient>
<linearGradient id="paint4_linear_6_243" x1="69.0564" y1="-52.7972" x2="415.376" y2="150.305" gradientUnits="userSpaceOnUse">
<stop stop-color="#FFB800"/>
<stop offset="0.941577" stop-color="#FFE299"/>
</linearGradient>
<linearGradient id="paint5_linear_6_243" x1="247.987" y1="-158.345" x2="433.578" y2="100.129" gradientUnits="userSpaceOnUse">
<stop stop-color="#901414"/>
<stop offset="0.925" stop-color="#EA5151"/>
</linearGradient>
<linearGradient id="paint6_linear_6_243" x1="70.5" y1="735.021" x2="422" y2="929.021" gradientUnits="userSpaceOnUse">
<stop stop-color="#FFB800"/>
<stop offset="0.941577" stop-color="#FFE299"/>
</linearGradient>
<clipPath id="clip0_6_243">
<rect width="471" height="843" fill="white"/>
</clipPath>
</defs>
</svg>
