<svg width="20" height="20" viewBox="0 0 20 20" fill="none" xmlns="http://www.w3.org/2000/svg">
<g clip-path="url(#clip0_203_421)">
<path d="M10.4248 11.0115C10.4631 10.3449 10.7898 9.75654 11.2831 9.33987C11.8007 8.90995 12.4536 8.67677 13.1264 8.68154C13.8348 8.68154 14.4856 8.93154 14.9689 9.33987C15.4623 9.75654 15.7881 10.3449 15.8256 11.0107C15.8631 11.6965 15.5881 12.3324 15.1048 12.8049C14.5724 13.3133 13.8626 13.5938 13.1264 13.5865C12.3898 13.5939 11.6794 13.3134 11.1464 12.8049C10.6631 12.3324 10.3873 11.6965 10.4248 11.0115ZM6.12477 12.359C6.12977 12.6207 6.2131 13.1274 6.3381 13.524C6.60795 14.3774 7.06102 15.1616 7.6656 15.8215C8.31398 16.5344 9.10535 17.1026 9.9881 17.489C10.9488 17.9125 11.9882 18.1284 13.0381 18.1224C14.0879 18.1244 15.1263 17.9052 16.0856 17.479C16.9677 17.0889 17.7583 16.5184 18.4064 15.804C19.01 15.1419 19.4627 14.3566 19.7331 13.5024C19.9931 12.6748 20.0643 11.7994 19.9414 10.9407C19.8244 10.118 19.536 9.32904 19.0948 8.62487C18.686 7.96983 18.1633 7.39324 17.5514 6.92237H17.5531L11.3048 2.12487L11.2881 2.11237C10.8781 1.79737 10.1889 1.79904 9.7381 2.11404C9.28227 2.43237 9.2306 2.95987 9.6356 3.2932L9.63477 3.29404L12.2398 5.4132L4.2981 5.42154H4.28727C3.6306 5.42237 2.99977 5.8532 2.87477 6.3982C2.74644 6.95237 3.19144 7.41237 3.87477 7.41487V7.41654L7.89977 7.40821L0.716436 12.9224L0.688102 12.9432C0.0106023 13.4615 -0.207731 14.3249 0.218936 14.8707C0.652269 15.4265 1.5731 15.4274 2.2581 14.874L6.1781 11.6665C6.1781 11.6665 6.11977 12.0999 6.12477 12.359ZM16.1998 13.8099C15.3914 14.6332 14.2614 15.0999 13.0373 15.1015C11.8123 15.1049 10.6814 14.6415 9.8731 13.8199C9.49142 13.4367 9.19694 12.9756 9.00977 12.4682C8.83824 11.9908 8.77047 11.4823 8.811 10.9766C8.85152 10.4709 8.9994 9.97971 9.24477 9.53571C9.48887 9.09682 9.81507 8.70895 10.2056 8.3932C10.9906 7.7532 11.9898 7.40737 13.0356 7.40571C14.0823 7.40404 15.0814 7.74737 15.8673 8.38487C16.2673 8.71071 16.5923 9.09654 16.8273 9.52404C17.0705 9.96211 17.2187 10.4465 17.2623 10.9457C17.3064 11.4573 17.2385 11.9723 17.0631 12.4549C16.8759 12.9631 16.5809 13.4251 16.1998 13.8099Z" fill="black"/>
</g>
<defs>
<clipPath id="clip0_203_421">
<rect width="20" height="20" fill="white"/>
</clipPath>
</defs>
</svg>
