<svg width="20" height="20" viewBox="0 0 20 20" fill="none" xmlns="http://www.w3.org/2000/svg">
<g clip-path="url(#clip0_203_422)">
<path d="M14.6842 0L4.98083 0.00333333C3.83917 0.00333333 2.68417 0.290833 1.84583 0.928333C1.25877 1.35618 0.795789 1.93218 0.504167 2.5975C0.194167 3.275 0 4.18333 0 4.95917L0.01 15.1258C0.0116667 16.4625 0.409167 17.6733 1.2275 18.5525C2.0475 19.4325 3.27917 19.955 4.83667 19.9617L14.0467 20C15.0967 20.0042 16.6258 19.97 17.6325 19.405C18.5283 18.9008 19.32 18.1083 19.7133 16.9183C19.945 16.2183 20.0008 15.1817 20 14.2958L19.9825 5.02083C19.9808 4.28083 19.8575 3.335 19.5267 2.57583C19.1725 1.7625 18.5425 1.06333 17.5917 0.555C16.9608 0.216667 15.935 0 14.6842 0ZM14.6842 0.775C15.8325 0.775 16.7992 1.02083 17.2175 1.24583C18.0317 1.68167 18.5042 2.2175 18.7917 2.87917C19.0542 3.48 19.1833 4.37333 19.1858 5.0225L19.2008 14.2975C19.2025 15.1417 19.12 16.1783 18.9525 16.6808C18.6225 17.6825 17.9975 18.3025 17.2333 18.7325C16.555 19.1133 15.0567 19.2267 14.05 19.2225L4.84167 19.1858C3.46083 19.18 2.48167 18.7408 1.82 18.0308C1.16 17.3217 0.81 16.3142 0.81 15.1267L0.8325 4.95833C0.8325 4.2675 0.995833 3.43583 1.2275 2.9275C1.515 2.29667 1.8525 1.92167 2.365 1.5325C2.9875 1.05833 4.05667 0.808333 5.06667 0.808333L14.6842 0.775ZM9.9675 3.6275C8.32083 3.70167 7.2975 5.00917 7.28917 6.36917C7.305 7.57167 8.65167 9.27 9.6925 10.1442C9.7925 10.2267 9.82083 10.235 9.9675 10.2942C10.0192 10.315 10.1325 10.255 10.24 10.1817C10.54 9.9775 11.0675 9.3925 11.6133 8.73333C11.9589 8.30479 12.2477 7.83338 12.4725 7.33083C12.8133 6.58917 12.69 5.99833 12.6683 5.7575C12.5151 5.22611 12.2315 4.74143 11.8433 4.3475C11.3287 3.88369 10.6603 3.62716 9.9675 3.6275ZM13.4442 10.2292C12.5214 10.2505 11.6083 10.4222 10.7408 10.7375C10.6158 10.7858 10.5242 10.8208 10.4292 10.8792C10.3817 10.9092 10.3375 10.9917 10.3417 11.1225C10.3558 11.4833 10.5833 12.1875 10.8617 13.0142C11.1817 13.96 11.75 14.9058 12.3983 15.2975C12.712 15.4858 13.0607 15.6081 13.4231 15.6571C13.7856 15.7061 14.1543 15.6807 14.5067 15.5825C15.2 15.38 15.8358 14.8592 16.1417 14.2942C16.9633 12.7792 16.3 11.3375 15.2075 10.6133C14.835 10.3667 14.2633 10.2425 13.6325 10.23C13.5708 10.23 13.5075 10.2283 13.4442 10.2292ZM6.4175 10.2608C6.20801 10.2612 5.99873 10.2743 5.79083 10.3C5.29417 10.365 5.01417 10.5275 4.71583 10.725C4.13528 11.1045 3.72684 11.6967 3.57833 12.3742C3.51583 12.8342 3.50667 13.2517 3.60583 13.63C3.96667 14.7875 4.71083 15.4817 5.97833 15.6733C6.50833 15.6967 7.12 15.6208 7.63667 15.2983C8.69417 14.6467 9.37 12.6567 9.64667 11.3467C9.69083 11.2 9.67583 11.0492 9.63583 10.9967C9.63167 10.9408 9.59917 10.9025 9.4775 10.8442C9.14583 10.6842 8.3775 10.4967 7.49833 10.3442C7.14106 10.2859 6.77949 10.258 6.4175 10.2608Z" fill="black"/>
</g>
<defs>
<clipPath id="clip0_203_422">
<rect width="20" height="20" fill="white"/>
</clipPath>
</defs>
</svg>
