<svg width="20" height="20" viewBox="0 0 20 20" fill="none" xmlns="http://www.w3.org/2000/svg">
<g opacity="0.78">
<path fill-rule="evenodd" clip-rule="evenodd" d="M7.22253 7.84734C6.93986 7.84734 6.65995 7.90301 6.3988 8.01119C6.13765 8.11936 5.90036 8.27791 5.70048 8.47779C5.5006 8.67767 5.34205 8.91496 5.23388 9.17611C5.1257 9.43727 5.07003 9.71717 5.07003 9.99984C5.07003 10.2825 5.1257 10.5624 5.23388 10.8236C5.34205 11.0847 5.5006 11.322 5.70048 11.5219C5.90036 11.7218 6.13765 11.8803 6.3988 11.9885C6.65995 12.0967 6.93986 12.1523 7.22253 12.1523H9.37503V10.0432C9.37469 10.0143 9.37469 9.98539 9.37503 9.9565V7.84734H7.22253ZM9.37503 6.59734H7.22253C6.65154 6.59734 6.10394 6.37051 5.70018 5.96676C5.29643 5.56301 5.06961 5.01541 5.06961 4.44442C5.06961 3.87343 5.29643 3.32583 5.70018 2.92208C6.10394 2.51833 6.65154 2.2915 7.22253 2.2915H9.37503V6.59734ZM10.625 2.2915V6.59734H12.7775C13.3412 6.58625 13.878 6.35455 14.2727 5.95201C14.6674 5.54946 14.8885 5.00818 14.8885 4.44442C14.8885 3.88066 14.6674 3.33938 14.2727 2.93683C13.878 2.53429 13.3412 2.30259 12.7775 2.2915H10.625ZM12.7775 7.8465C12.2125 7.84643 11.6701 8.06852 11.2674 8.46483C10.8647 8.86114 10.634 9.3999 10.625 9.96484V10.034C10.6319 10.4582 10.764 10.8708 11.0047 11.2202C11.2454 11.5695 11.5839 11.84 11.9778 11.9975C12.3716 12.1551 12.8033 12.1928 13.2185 12.1058C13.6337 12.0188 14.014 11.8111 14.3115 11.5087C14.6091 11.2063 14.8106 10.8228 14.8909 10.4062C14.9711 9.98967 14.9265 9.55868 14.7626 9.1674C14.5987 8.77611 14.3229 8.44199 13.9697 8.20698C13.6165 7.97197 13.2017 7.84656 12.7775 7.8465ZM7.22253 13.4023C6.7966 13.4022 6.3802 13.5283 6.02597 13.7648C5.67175 14.0013 5.39562 14.3376 5.23251 14.731C5.0694 15.1245 5.02664 15.5575 5.10963 15.9753C5.19263 16.393 5.39765 16.7768 5.69876 17.078C5.99988 17.3792 6.38356 17.5844 6.80129 17.6676C7.21902 17.7507 7.65203 17.7081 8.04555 17.5452C8.43907 17.3822 8.77542 17.1062 9.01207 16.7521C9.24872 16.398 9.37503 15.9816 9.37503 15.5557V13.4023H7.22253Z" fill="black"/>
</g>
</svg>
