<svg width="30" height="30" viewBox="0 0 30 30" fill="none" xmlns="http://www.w3.org/2000/svg">
<g opacity="0.78" clip-path="url(#clip0_173_163)">
<path d="M8.78029 2.88739C9.71899 3.20538 10.612 3.64496 11.4365 4.19489C12.601 3.89728 13.7984 3.74777 15.0003 3.74989C16.2415 3.74989 17.439 3.90489 18.5615 4.19364C19.3857 3.64424 20.2783 3.20509 21.2165 2.88739C22.0878 2.59114 23.329 2.11114 24.0665 2.92739C24.5665 3.48239 24.6915 4.41239 24.7803 5.12239C24.8803 5.91489 24.904 6.94739 24.6415 7.97239C25.6453 9.26864 26.2503 10.8149 26.2503 12.4999C26.2503 15.0524 24.8678 17.2686 22.8215 18.8036C21.8368 19.5331 20.7445 20.1049 19.584 20.4986C19.8515 21.1111 20.0003 21.7886 20.0003 22.4999V26.2499C20.0003 26.5814 19.8686 26.8994 19.6342 27.1338C19.3997 27.3682 19.0818 27.4999 18.7503 27.4999H11.2503C10.9188 27.4999 10.6008 27.3682 10.3664 27.1338C10.132 26.8994 10.0003 26.5814 10.0003 26.2499V25.0111C8.80654 25.1574 7.80529 25.0274 6.95404 24.6661C6.06404 24.2886 5.44404 23.7036 4.97779 23.1436C4.53529 22.6136 4.05279 21.4186 3.35529 21.1861C3.19951 21.1343 3.05547 21.0522 2.9314 20.9447C2.80732 20.8371 2.70565 20.7062 2.63217 20.5594C2.48379 20.2629 2.45928 19.9195 2.56404 19.6049C2.6688 19.2903 2.89425 19.0302 3.19079 18.8818C3.48733 18.7334 3.83067 18.7089 4.14529 18.8136C4.97779 19.0911 5.52029 19.6911 5.89154 20.1736C6.49154 20.9486 6.97904 21.9611 7.92904 22.3649C8.32029 22.5311 8.89404 22.6399 9.79154 22.5174L10.0003 22.4749C10.0027 21.7946 10.1443 21.1221 10.4165 20.4986C9.25602 20.1049 8.1638 19.5331 7.17904 18.8036C5.13279 17.2686 3.75029 15.0536 3.75029 12.4999C3.75029 10.8174 4.35404 9.27239 5.35529 7.97739C5.09279 6.95239 5.11529 5.91739 5.21529 5.12364L5.22154 5.07614C5.31279 4.34864 5.41904 3.49239 5.92904 2.92739C6.66654 2.11114 7.90904 2.59239 8.77904 2.88864L8.78029 2.88739Z" fill="black"/>
</g>
<defs>
<clipPath id="clip0_173_163">
<rect width="30" height="30" fill="white"/>
</clipPath>
</defs>
</svg>
