<svg width="20" height="20" viewBox="0 0 20 20" fill="none" xmlns="http://www.w3.org/2000/svg">
<g opacity="0.78" clip-path="url(#clip0_203_410)">
<mask id="mask0_203_410" style="mask-type:luminance" maskUnits="userSpaceOnUse" x="0" y="0" width="20" height="20">
<path d="M0 0H20V20H0V0Z" fill="white"/>
</mask>
<g mask="url(#mask0_203_410)">
<path d="M20 9.741C20 8.416 18.3408 7.16016 15.7967 6.38183C16.3842 3.78933 16.1233 1.726 14.9733 1.06516C14.6947 0.909096 14.3793 0.83054 14.06 0.837663V1.746C14.2475 1.746 14.3983 1.7835 14.525 1.85266C15.0792 2.171 15.32 3.381 15.1325 4.9385C15.0875 5.32183 15.0142 5.72516 14.9242 6.13683C14.0722 5.93153 13.2075 5.78314 12.3358 5.69266C11.8165 4.97624 11.25 4.29528 10.64 3.65433C11.9692 2.41933 13.2167 1.74266 14.065 1.74266V0.833496C12.9433 0.833496 11.4758 1.63266 9.99167 3.0185C8.50833 1.64183 7.04 0.850163 5.91917 0.850163V1.7585C6.76333 1.7585 8.015 2.43183 9.34417 3.6585C8.77333 4.2585 8.2025 4.9385 7.66 5.69266C6.78653 5.78214 5.92029 5.93194 5.0675 6.141C4.97737 5.75082 4.90645 5.35646 4.855 4.95933C4.66333 3.401 4.9 2.191 5.45083 1.86933C5.5725 1.796 5.73167 1.76266 5.91917 1.76266V0.854329C5.5775 0.854329 5.26667 0.927663 4.99833 1.08183C3.8525 1.74266 3.59583 3.801 4.18667 6.386C1.65083 7.16933 0 8.42016 0 9.741C0 11.066 1.65917 12.3218 4.20333 13.0993C3.61583 15.6927 3.87667 17.756 5.02667 18.416C5.29167 18.571 5.60167 18.6443 5.94333 18.6443C7.065 18.6443 8.5325 17.8452 10.0167 16.4593C11.5 17.8368 12.9675 18.6277 14.0892 18.6277C14.4109 18.6345 14.7287 18.5557 15.01 18.3993C16.1558 17.7393 16.4125 15.681 15.8217 13.096C18.3492 12.3177 20 11.0618 20 9.741ZM14.6917 7.02183C14.5333 7.56671 14.3498 8.10395 14.1417 8.63183C13.801 7.96913 13.4269 7.32413 13.0208 6.69933C13.6 6.78516 14.1583 6.891 14.6925 7.02183M12.8258 11.3635C12.5206 11.8964 12.1928 12.416 11.8433 12.921C10.6202 13.0288 9.39003 13.0302 8.16667 12.9252C7.46496 11.9228 6.85128 10.8616 6.3325 9.7535C6.85049 8.64275 7.46156 7.57784 8.15917 6.57016C9.38199 6.46214 10.6119 6.46046 11.835 6.56516C12.1733 7.05016 12.5042 7.5685 12.8217 8.11516C13.1317 8.6485 13.4133 9.19016 13.67 9.73683C13.4105 10.2901 13.1289 10.8328 12.8258 11.3635ZM14.1417 10.8335C14.3617 11.3802 14.55 11.926 14.7042 12.456C14.1708 12.5868 13.6075 12.6968 13.025 12.7818C13.4294 12.1513 13.8021 11.5011 14.1417 10.8335ZM10.0083 15.1835C9.62917 14.7918 9.25 14.356 8.875 13.8785C9.24167 13.8952 9.61667 13.9077 9.99583 13.9077C10.3792 13.9077 10.7583 13.8993 11.1292 13.8785C10.7625 14.356 10.3833 14.7918 10.0083 15.1835ZM6.975 12.7818C6.41312 12.7004 5.8553 12.5931 5.30333 12.4602C5.45417 11.9343 5.64167 11.3918 5.85333 10.8502C6.02083 11.1752 6.19667 11.5018 6.38833 11.8285C6.58 12.1543 6.775 12.4727 6.975 12.7818ZM9.9875 4.2985C10.3667 4.69016 10.7458 5.126 11.1208 5.6035C10.7542 5.58683 10.3792 5.57433 10 5.57433C9.61667 5.57433 9.2375 5.58266 8.86667 5.6035C9.23333 5.126 9.6125 4.69016 9.9875 4.2985ZM6.97083 6.70016C6.56656 7.32927 6.19387 7.97813 5.85417 8.64433C5.64018 8.11305 5.45245 7.57156 5.29167 7.02183C5.825 6.89516 6.38833 6.78516 6.97083 6.70016ZM3.28167 11.8035C1.83833 11.1885 0.905 10.381 0.905 9.741C0.905 9.101 1.83833 8.28933 3.28167 7.6785C3.63167 7.52766 4.015 7.39266 4.41083 7.26683C4.64333 8.06516 4.94917 8.89683 5.3275 9.74933C4.9703 10.5511 4.66821 11.3764 4.42333 12.2193C4.03621 12.0995 3.6552 11.9607 3.28167 11.8035ZM5.475 17.6285C4.92083 17.3118 4.68 16.1002 4.8675 14.5435C4.9125 14.1602 4.98583 13.756 5.07583 13.3443C5.87417 13.5402 6.74667 13.691 7.66417 13.7893C8.18348 14.5057 8.75002 15.1867 9.36 15.8277C8.03083 17.0627 6.78333 17.7393 5.935 17.7393C5.77495 17.7411 5.61694 17.7033 5.475 17.6293M15.145 14.5235C15.3367 16.081 15.1 17.2918 14.5492 17.6135C14.4275 17.6868 14.2683 17.7193 14.0808 17.7193C13.2367 17.7193 11.985 17.0468 10.6558 15.8193C11.2633 15.1811 11.826 14.5017 12.34 13.786C13.2135 13.6965 14.0797 13.5467 14.9325 13.3377C15.0267 13.7493 15.0992 14.1443 15.145 14.5235ZM16.7142 11.8043C16.3642 11.9552 15.9808 12.0902 15.585 12.216C15.3358 11.3688 15.0296 10.5394 14.6683 9.7335C15.0433 8.886 15.3442 8.0585 15.5725 7.2635C15.9609 7.38376 16.3432 7.52253 16.7183 7.67933C18.1617 8.29433 19.095 9.10183 19.095 9.74183C19.0908 10.3818 18.1575 11.1935 16.7142 11.8043Z" fill="black"/>
<path d="M9.99615 11.6041C10.4903 11.6041 10.9643 11.4078 11.3137 11.0584C11.6632 10.7089 11.8595 10.235 11.8595 9.74078C11.8595 9.24659 11.6632 8.77264 11.3137 8.4232C10.9643 8.07376 10.4903 7.87744 9.99615 7.87744C9.50196 7.87744 9.02801 8.07376 8.67857 8.4232C8.32913 8.77264 8.13281 9.24659 8.13281 9.74078C8.13281 10.235 8.32913 10.7089 8.67857 11.0584C9.02801 11.4078 9.50196 11.6041 9.99615 11.6041Z" fill="black"/>
</g>
</g>
<defs>
<clipPath id="clip0_203_410">
<rect width="20" height="20" fill="white"/>
</clipPath>
</defs>
</svg>
